<svg width="19" height="10" viewBox="0 0 19 10" fill="none" xmlns="http://www.w3.org/2000/svg">
<path d="M0.217684 5.55301C0.217907 5.55325 0.218092 5.55352 0.218351 5.55376L4.09643 9.61625C4.38696 9.92059 4.85688 9.91946 5.14607 9.6136C5.43522 9.30778 5.43411 8.81313 5.14358 8.50875L2.53984 5.78126L18.2578 5.78126C18.6677 5.78126 19 5.43149 19 5.00001C19 4.56852 18.6677 4.21876 18.2578 4.21876L2.53988 4.21876L5.14355 1.49126C5.43407 1.18688 5.43519 0.692236 5.14603 0.386415C4.85684 0.0805168 4.38688 0.079463 4.09639 0.383759L0.218315 4.44626C0.218092 4.44649 0.217905 4.44676 0.217646 4.447C-0.0730324 4.75239 -0.0721035 5.24864 0.217684 5.55301Z" fill="white"/>
</svg>
