<svg width="24" height="24" viewBox="0 0 123 101" fill="none" xmlns="http://www.w3.org/2000/svg">
<g clip-path="url(#clip0_201_5)">
<path fill-rule="evenodd" clip-rule="evenodd" d="M0.32 83.38C9.52 83.38 16.99 90.79 17.07 99.97H0V83.39L0.32 83.38ZM0.32 38.58C17.32 38.58 32.71 45.47 43.84 56.61C54.94 67.71 61.83 83.04 61.87 99.97H49.56C49.52 86.44 44.01 74.19 35.14 65.31C26.23 56.4 13.92 50.89 0.32 50.89L0 50.9V38.58H0.32ZM0.32 60.68C11.22 60.68 21.08 65.1 28.22 72.24C35.33 79.35 39.73 89.15 39.78 99.98H27.47C27.43 92.55 24.4 85.82 19.52 80.94C14.61 76.03 7.82 72.99 0.32 72.99H0V60.68H0.32ZM12.39 0H109.5C113.19 0 116.53 1.51 118.95 3.92C121.43 6.4 122.88 9.87 122.88 13.37V87.15C122.88 90.81 121.37 94.15 118.95 96.57L118.92 96.6C116.5 99.02 113.16 100.53 109.5 100.53H72.24C72.24 100.31 72.25 100.6 72.25 100.63C72.25 100.66 72.19 100.44 72.26 99.18L72.78 88.71H111.06V11.81H12.01V28.15C8.84 27.53 1.74 27.99 0.2 28.01V13.38C0.2 9.73 1.7 6.39 4.12 3.96C6.68 1.43 8.78 0 12.39 0Z" fill="white"/>
</g>
<defs>
<clipPath id="clip0_201_5">
<rect width="122.88" height="100.64" fill="white"/>
</clipPath>
</defs>
</svg>
