<svg width="20" height="16" viewBox="0 0 20 16" fill="none" xmlns="http://www.w3.org/2000/svg">
<path d="M3.15789 0H16.8421C17.6796 0 18.4829 0.297478 19.0751 0.826993C19.6673 1.35651 20 2.07468 20 2.82353V13.1765C20 13.9253 19.6673 14.6435 19.0751 15.173C18.4829 15.7025 17.6796 16 16.8421 16H3.15789C2.32037 16 1.51715 15.7025 0.924926 15.173C0.332706 14.6435 0 13.9253 0 13.1765V2.82353C0 2.07468 0.332706 1.35651 0.924926 0.826993C1.51715 0.297478 2.32037 0 3.15789 0ZM3.15789 0.941176C2.59954 0.941176 2.06406 1.1395 1.66925 1.4925C1.27444 1.84551 1.05263 2.3243 1.05263 2.82353V13.1765C1.05263 13.6757 1.27444 14.1545 1.66925 14.5075C2.06406 14.8605 2.59954 15.0588 3.15789 15.0588H16.8421C17.4005 15.0588 17.9359 14.8605 18.3308 14.5075C18.7256 14.1545 18.9474 13.6757 18.9474 13.1765V2.82353C18.9474 2.3243 18.7256 1.84551 18.3308 1.4925C17.9359 1.1395 17.4005 0.941176 16.8421 0.941176H3.15789ZM8.42105 3.76471H15.7895V10.3529H14.7368V5.37129L7.21474 12.0969L6.46947 11.4315L13.9926 4.70588H8.42105V3.76471Z" fill="white"/>
<path fill-rule="evenodd" clip-rule="evenodd" d="M15.7897 3.76562H8.42131V4.7068H13.9929L6.46973 11.4324L7.21499 12.0979L14.7371 5.37221V10.3539H15.7897V3.76562Z" fill="#E0BF5A"/>
</svg>
