<svg width="60" height="60" viewBox="0 0 60 60" fill="none" xmlns="http://www.w3.org/2000/svg">
<path d="M27 20H22V40H27V20Z" fill="#E0BF5A"/>
<path d="M37 20H32V40H37V20Z" fill="#E0BF5A"/>
<path d="M29.9998 3.02168C22.7937 3.02168 16.0189 5.8279 10.9234 10.9234C5.8279 16.0189 3.02168 22.7937 3.02168 29.9998C3.02168 37.206 5.8279 43.9808 10.9234 49.0763C16.0189 54.1718 22.7937 56.978 29.9998 56.978C37.206 56.978 43.9808 54.1718 49.0763 49.0763C54.1718 43.9808 56.978 37.206 56.978 29.9998C56.978 22.7937 54.1718 16.0189 49.0763 10.9234C43.9808 5.8279 37.206 3.02168 29.9998 3.02168ZM29.9998 0C46.5683 0 59.9997 13.4314 59.9997 29.9998C59.9997 46.5683 46.5683 59.9997 29.9998 59.9997C13.4314 59.9997 0 46.5683 0 29.9998C0 13.4314 13.4314 0 29.9998 0Z" fill="white"/>
</svg>
