<svg width="59" height="59" viewBox="0 0 59 59" fill="none" xmlns="http://www.w3.org/2000/svg">
<path d="M29.4999 2.97132C22.4138 2.97132 15.7519 5.73077 10.7414 10.7414C5.73077 15.7519 2.97132 22.4138 2.97132 29.4999C2.97132 36.5859 5.73077 43.2478 10.7414 48.2584C15.7519 53.2689 22.4138 56.0284 29.4999 56.0284C36.5859 56.0284 43.2478 53.2689 48.2584 48.2584C53.2689 43.2478 56.0284 36.5859 56.0284 29.4999C56.0284 22.4138 53.2689 15.7519 48.2584 10.7414C43.2478 5.73077 36.5859 2.97132 29.4999 2.97132ZM29.4999 0C45.7922 0 58.9997 13.2075 58.9997 29.4999C58.9997 45.7922 45.7922 58.9997 29.4999 58.9997C13.2075 58.9997 0 45.7922 0 29.4999C0 13.2075 13.2075 0 29.4999 0Z" fill="white"/>
<path d="M39.1128 29.7131L25.0134 37.8534L25.0134 21.5728L39.1128 29.7131Z" stroke="#E0BF5A"/>
</svg>
