<svg width="31" height="33" viewBox="0 0 31 33" fill="none" xmlns="http://www.w3.org/2000/svg">
<path d="M16.9914 7.7486e-06C17.3911 -0.000732303 17.7157 0.32003 17.7164 0.716347C17.7168 0.90741 17.6402 1.09073 17.5038 1.22569L2.0919 16.5048L17.5038 31.7839C17.7815 32.0689 17.7735 32.5232 17.486 32.7986C17.2055 33.0671 16.7609 33.0671 16.4804 32.7986L0.557533 17.0114C0.274992 16.7312 0.274992 16.277 0.557533 15.9967L16.4803 0.209568C16.616 0.0753556 16.7997 7.7486e-06 16.9914 7.7486e-06Z" fill="white"/>
<path d="M30.275 7.7486e-06C30.6747 -0.000732303 30.9993 0.319931 31 0.716122C31.0003 0.907124 30.9238 1.09039 30.7874 1.2253L15.3768 16.4996L30.7874 31.7738C31.0704 32.0543 31.0704 32.5091 30.7874 32.7896C30.5044 33.0701 30.0456 33.0701 29.7626 32.7896L13.8411 17.0074C13.5586 16.7273 13.5586 16.2732 13.8411 15.993L29.7626 0.210915C29.8984 0.0759355 30.0827 7.7486e-06 30.275 7.7486e-06Z" fill="white"/>
</svg>
